<?xml version="1.0" encoding="iso-8859-1"?>
<!-- Uploaded to: SVG Repo, www.svgrepo.com, Generator: SVG Repo Mixer Tools -->
<svg fill="#000000"  version="1.1" id="Layer_1" xmlns="http://www.w3.org/2000/svg" xmlns:xlink="http://www.w3.org/1999/xlink" 
	 viewBox="0 0 512 512" xml:space="preserve">
<g>
	<g>
		<path d="M510.101,415.754c-3.805-14.203-12.914-26.072-25.646-33.424c-12.733-7.351-27.567-9.306-41.769-5.499
			c-8.647,2.317-16.42,6.609-22.844,12.477l-96.291-55.593c1.832-6.263,2.833-12.877,2.833-19.724
			c0-33.057-22.915-60.85-53.69-68.367v-111.2c22.214-7.087,38.35-27.917,38.35-52.449c0-30.352-24.693-55.044-55.044-55.044
			s-55.044,24.693-55.044,55.044c0,24.532,16.136,45.361,38.35,52.449v111.201c-30.776,7.517-53.69,35.309-53.69,68.367
			c0,6.847,1.002,13.461,2.833,19.724l-96.291,55.593c-6.424-5.869-14.198-10.16-22.844-12.477
			c-14.201-3.805-29.036-1.853-41.769,5.499c-12.732,7.351-21.841,19.221-25.646,33.424c-3.805,14.201-1.853,29.035,5.499,41.769
			c7.351,12.733,19.221,21.842,33.424,25.646c4.742,1.271,9.554,1.9,14.336,1.9c9.537,0,18.952-2.502,27.432-7.398
			c12.733-7.351,21.842-19.221,25.646-33.424c2.317-8.647,2.486-17.524,0.617-26.022l96.326-55.614
			C218,376.009,236.036,384.378,256,384.378s37.999-8.37,50.822-21.766l96.326,55.614c-1.871,8.497-1.701,17.376,0.617,26.022
			c3.805,14.203,12.914,26.072,25.646,33.424c8.482,4.897,17.894,7.399,27.432,7.398c4.78,0,9.595-0.629,14.336-1.9
			c14.203-3.805,26.072-12.914,33.424-25.646C511.953,444.789,513.906,429.956,510.101,415.754z"/>
	</g>
</g>
</svg>